<svg width="173" height="41" viewBox="0 0 173 41" fill="none" xmlns="http://www.w3.org/2000/svg">
<path d="M62.5723 18.464H60.2443V29H56.8363V18.464H55.3243V15.704H56.8363V15.032C56.8363 13.4 57.3003 12.2 58.2283 11.432C59.1563 10.664 60.5563 10.304 62.4283 10.352V13.184C61.6123 13.168 61.0443 13.304 60.7243 13.592C60.4043 13.88 60.2443 14.4 60.2443 15.152V15.704H62.5723V18.464ZM68.1098 17.768C68.5418 17.064 69.1018 16.512 69.7898 16.112C70.4938 15.712 71.2938 15.512 72.1898 15.512V19.04H71.3018C70.2458 19.04 69.4458 19.288 68.9018 19.784C68.3738 20.28 68.1098 21.144 68.1098 22.376V29H64.7498V15.704H68.1098V17.768ZM96.6836 15.512C98.3156 15.512 99.6276 16.016 100.62 17.024C101.628 18.016 102.132 19.408 102.132 21.2V29H98.7716V21.656C98.7716 20.616 98.5076 19.824 97.9796 19.28C97.4516 18.72 96.7316 18.44 95.8196 18.44C94.9076 18.44 94.1796 18.72 93.6356 19.28C93.1076 19.824 92.8436 20.616 92.8436 21.656V29H89.4836V21.656C89.4836 20.616 89.2196 19.824 88.6916 19.28C88.1636 18.72 87.4436 18.44 86.5316 18.44C85.6036 18.44 84.8676 18.72 84.3236 19.28C83.7956 19.824 83.5316 20.616 83.5316 21.656V29H80.1716V15.704H83.5316V17.312C83.9636 16.752 84.5156 16.312 85.1876 15.992C85.8756 15.672 86.6276 15.512 87.4436 15.512C88.4836 15.512 89.4116 15.736 90.2276 16.184C91.0436 16.616 91.6756 17.24 92.1236 18.056C92.5556 17.288 93.1796 16.672 93.9956 16.208C94.8276 15.744 95.7236 15.512 96.6836 15.512ZM111.224 29.216C109.944 29.216 108.792 28.936 107.768 28.376C106.744 27.8 105.936 26.992 105.344 25.952C104.768 24.912 104.48 23.712 104.48 22.352C104.48 20.992 104.776 19.792 105.368 18.752C105.976 17.712 106.8 16.912 107.84 16.352C108.88 15.776 110.04 15.488 111.32 15.488C112.6 15.488 113.76 15.776 114.8 16.352C115.84 16.912 116.656 17.712 117.248 18.752C117.856 19.792 118.16 20.992 118.16 22.352C118.16 23.712 117.848 24.912 117.224 25.952C116.616 26.992 115.784 27.8 114.728 28.376C113.688 28.936 112.52 29.216 111.224 29.216ZM111.224 26.288C111.832 26.288 112.4 26.144 112.928 25.856C113.472 25.552 113.904 25.104 114.224 24.512C114.544 23.92 114.704 23.2 114.704 22.352C114.704 21.088 114.368 20.12 113.696 19.448C113.04 18.76 112.232 18.416 111.272 18.416C110.312 18.416 109.504 18.76 108.848 19.448C108.208 20.12 107.888 21.088 107.888 22.352C107.888 23.616 108.2 24.592 108.824 25.28C109.464 25.952 110.264 26.288 111.224 26.288ZM127.993 15.512C129.577 15.512 130.857 16.016 131.833 17.024C132.809 18.016 133.297 19.408 133.297 21.2V29H129.937V21.656C129.937 20.6 129.673 19.792 129.145 19.232C128.617 18.656 127.897 18.368 126.985 18.368C126.057 18.368 125.321 18.656 124.777 19.232C124.249 19.792 123.985 20.6 123.985 21.656V29H120.625V15.704H123.985V17.36C124.433 16.784 125.001 16.336 125.689 16.016C126.393 15.68 127.161 15.512 127.993 15.512ZM148.852 22.064C148.852 22.544 148.82 22.976 148.756 23.36H139.036C139.116 24.32 139.452 25.072 140.044 25.616C140.636 26.16 141.364 26.432 142.228 26.432C143.476 26.432 144.364 25.896 144.892 24.824H148.516C148.132 26.104 147.396 27.16 146.308 27.992C145.22 28.808 143.884 29.216 142.3 29.216C141.02 29.216 139.868 28.936 138.844 28.376C137.836 27.8 137.044 26.992 136.468 25.952C135.908 24.912 135.628 23.712 135.628 22.352C135.628 20.976 135.908 19.768 136.468 18.728C137.028 17.688 137.812 16.888 138.82 16.328C139.828 15.768 140.988 15.488 142.3 15.488C143.564 15.488 144.692 15.76 145.684 16.304C146.692 16.848 147.468 17.624 148.012 18.632C148.572 19.624 148.852 20.768 148.852 22.064ZM145.372 21.104C145.356 20.24 145.044 19.552 144.436 19.04C143.828 18.512 143.084 18.248 142.204 18.248C141.372 18.248 140.668 18.504 140.092 19.016C139.532 19.512 139.188 20.208 139.06 21.104H145.372ZM164.024 15.704L155.792 35.288H152.216L155.096 28.664L149.768 15.704H153.536L156.968 24.992L160.448 15.704H164.024Z" fill="white"/>
<path d="M34.1422 5.85781C30.3647 2.08031 25.3422 0 20 0C14.6578 0 9.63531 2.08031 5.85781 5.85781C2.08031 9.63531 0 14.6578 0 20C0 25.3422 2.08039 30.3646 5.85781 34.1422C9.63523 37.9198 14.6578 40 20 40C25.3422 40 30.3647 37.9197 34.1422 34.1422C37.9197 30.3647 40 25.3422 40 20C40 14.6578 37.9196 9.63539 34.1422 5.85781Z" fill="#33CC95"/>
<g clip-path="url(#clip0)">
<path d="M20.5714 8V33.1429" stroke="white" stroke-width="2" stroke-linecap="round" stroke-linejoin="round"/>
<path d="M26.2857 12.5714H17.7143C16.6534 12.5714 15.636 12.9929 14.8859 13.743C14.1357 14.4931 13.7143 15.5106 13.7143 16.5714C13.7143 17.6323 14.1357 18.6497 14.8859 19.3999C15.636 20.15 16.6534 20.5714 17.7143 20.5714H23.4286C24.4894 20.5714 25.5069 20.9929 26.257 21.743C27.0072 22.4932 27.4286 23.5106 27.4286 24.5714C27.4286 25.6323 27.0072 26.6497 26.257 27.3999C25.5069 28.15 24.4894 28.5714 23.4286 28.5714H13.7143" stroke="white" stroke-width="2" stroke-linecap="round" stroke-linejoin="round"/>
</g>
<defs>
<clipPath id="clip0">
<rect width="27.4286" height="27.4286" fill="white" transform="translate(6.85715 6.85714)"/>
</clipPath>
</defs>
</svg>
